<svg xmlns="http://www.w3.org/2000/svg" xmlns:xlink="http://www.w3.org/1999/xlink" width="500" zoomAndPan="magnify" viewBox="0 0 375 374.999991" height="500" preserveAspectRatio="xMidYMid meet" version="1.0"><defs><clipPath id="id1"><path d="M 47 82.160156 L 373 82.160156 L 373 292.910156 L 47 292.910156 Z M 47 82.160156 " clip-rule="nonzero"/></clipPath><clipPath id="id2"><path d="M 182 88 L 211 88 L 211 117 L 182 117 Z M 182 88 " clip-rule="nonzero"/></clipPath><clipPath id="id3"><path d="M 112.664062 85.414062 L 112.664062 152.246094 L 80.714844 152.246094 L 80.714844 185.660156 L 53.960938 185.660156 L 53.664062 188.566406 C 51.992188 206.769531 55.167969 223.558594 62.46875 237.917969 L 64.917969 242.320312 C 66.371094 244.957031 68.113281 247.4375 69.914062 249.855469 C 71.710938 252.273438 72.359375 253.609375 73.5 255.214844 C 92.796875 276.890625 121.566406 287.351562 154.78125 287.351562 C 228.339844 287.351562 290.765625 254.75 318.398438 181.523438 C 337.992188 183.53125 356.800781 178.503906 365.367188 161.773438 C 351.714844 153.894531 334.175781 156.421875 324.066406 161.503906 L 350.847656 85.410156 L 246.28125 152.238281 L 212.878906 152.238281 L 212.878906 85.410156 Z M 112.664062 85.414062 " clip-rule="nonzero"/></clipPath><clipPath id="id4"><path d="M 185 90 L 208 90 L 208 115 L 185 115 Z M 185 90 " clip-rule="nonzero"/></clipPath><clipPath id="id5"><path d="M 112.664062 85.414062 L 112.664062 152.246094 L 80.714844 152.246094 L 80.714844 185.660156 L 53.960938 185.660156 L 53.664062 188.566406 C 51.992188 206.769531 55.167969 223.558594 62.46875 237.917969 L 64.917969 242.320312 C 66.371094 244.957031 68.113281 247.4375 69.914062 249.855469 C 71.710938 252.273438 72.359375 253.609375 73.5 255.214844 C 92.796875 276.890625 121.566406 287.351562 154.78125 287.351562 C 228.339844 287.351562 290.765625 254.75 318.398438 181.523438 C 337.992188 183.53125 356.800781 178.503906 365.367188 161.773438 C 351.714844 153.894531 334.175781 156.421875 324.066406 161.503906 L 350.847656 85.410156 L 246.28125 152.238281 L 212.878906 152.238281 L 212.878906 85.410156 Z M 112.664062 85.414062 " clip-rule="nonzero"/></clipPath><clipPath id="id6"><path d="M 184 89 L 209 89 L 209 116 L 184 116 Z M 184 89 " clip-rule="nonzero"/></clipPath><clipPath id="id7"><path d="M 112.664062 85.414062 L 112.664062 152.246094 L 80.714844 152.246094 L 80.714844 185.660156 L 53.960938 185.660156 L 53.664062 188.566406 C 51.992188 206.769531 55.167969 223.558594 62.46875 237.917969 L 64.917969 242.320312 C 66.371094 244.957031 68.113281 247.4375 69.914062 249.855469 C 71.710938 252.273438 72.359375 253.609375 73.5 255.214844 C 92.796875 276.890625 121.566406 287.351562 154.78125 287.351562 C 228.339844 287.351562 290.765625 254.75 318.398438 181.523438 C 337.992188 183.53125 356.800781 178.503906 365.367188 161.773438 C 351.714844 153.894531 334.175781 156.421875 324.066406 161.503906 L 350.847656 85.410156 L 246.28125 152.238281 L 212.878906 152.238281 L 212.878906 85.410156 Z M 112.664062 85.414062 " clip-rule="nonzero"/></clipPath><clipPath id="id8"><path d="M 215 88 L 245 88 L 245 117 L 215 117 Z M 215 88 " clip-rule="nonzero"/></clipPath><clipPath id="id9"><path d="M 112.664062 85.414062 L 112.664062 152.246094 L 80.714844 152.246094 L 80.714844 185.660156 L 53.960938 185.660156 L 53.664062 188.566406 C 51.992188 206.769531 55.167969 223.558594 62.46875 237.917969 L 64.917969 242.320312 C 66.371094 244.957031 68.113281 247.4375 69.914062 249.855469 C 71.710938 252.273438 72.359375 253.609375 73.5 255.214844 C 92.796875 276.890625 121.566406 287.351562 154.78125 287.351562 C 228.339844 287.351562 290.765625 254.75 318.398438 181.523438 C 337.992188 183.53125 356.800781 178.503906 365.367188 161.773438 C 351.714844 153.894531 334.175781 156.421875 324.066406 161.503906 L 350.847656 85.410156 L 246.28125 152.238281 L 212.878906 152.238281 L 212.878906 85.410156 Z M 112.664062 85.414062 " clip-rule="nonzero"/></clipPath><clipPath id="id10"><path d="M 218 90 L 241 90 L 241 115 L 218 115 Z M 218 90 " clip-rule="nonzero"/></clipPath><clipPath id="id11"><path d="M 112.664062 85.414062 L 112.664062 152.246094 L 80.714844 152.246094 L 80.714844 185.660156 L 53.960938 185.660156 L 53.664062 188.566406 C 51.992188 206.769531 55.167969 223.558594 62.46875 237.917969 L 64.917969 242.320312 C 66.371094 244.957031 68.113281 247.4375 69.914062 249.855469 C 71.710938 252.273438 72.359375 253.609375 73.5 255.214844 C 92.796875 276.890625 121.566406 287.351562 154.78125 287.351562 C 228.339844 287.351562 290.765625 254.75 318.398438 181.523438 C 337.992188 183.53125 356.800781 178.503906 365.367188 161.773438 C 351.714844 153.894531 334.175781 156.421875 324.066406 161.503906 L 350.847656 85.410156 L 246.28125 152.238281 L 212.878906 152.238281 L 212.878906 85.410156 Z M 112.664062 85.414062 " clip-rule="nonzero"/></clipPath><clipPath id="id12"><path d="M 217 89 L 242 89 L 242 116 L 217 116 Z M 217 89 " clip-rule="nonzero"/></clipPath><clipPath id="id13"><path d="M 112.664062 85.414062 L 112.664062 152.246094 L 80.714844 152.246094 L 80.714844 185.660156 L 53.960938 185.660156 L 53.664062 188.566406 C 51.992188 206.769531 55.167969 223.558594 62.46875 237.917969 L 64.917969 242.320312 C 66.371094 244.957031 68.113281 247.4375 69.914062 249.855469 C 71.710938 252.273438 72.359375 253.609375 73.5 255.214844 C 92.796875 276.890625 121.566406 287.351562 154.78125 287.351562 C 228.339844 287.351562 290.765625 254.75 318.398438 181.523438 C 337.992188 183.53125 356.800781 178.503906 365.367188 161.773438 C 351.714844 153.894531 334.175781 156.421875 324.066406 161.503906 L 350.847656 85.410156 L 246.28125 152.238281 L 212.878906 152.238281 L 212.878906 85.410156 Z M 112.664062 85.414062 " clip-rule="nonzero"/></clipPath><clipPath id="id14"><path d="M 53.117188 121 L 79 121 L 79 151 L 53.117188 151 Z M 53.117188 121 " clip-rule="nonzero"/></clipPath><clipPath id="id15"><path d="M 112.664062 85.414062 L 112.664062 152.246094 L 80.714844 152.246094 L 80.714844 185.660156 L 53.960938 185.660156 L 53.664062 188.566406 C 51.992188 206.769531 55.167969 223.558594 62.46875 237.917969 L 64.917969 242.320312 C 66.371094 244.957031 68.113281 247.4375 69.914062 249.855469 C 71.710938 252.273438 72.359375 253.609375 73.5 255.214844 C 92.796875 276.890625 121.566406 287.351562 154.78125 287.351562 C 228.339844 287.351562 290.765625 254.75 318.398438 181.523438 C 337.992188 183.53125 356.800781 178.503906 365.367188 161.773438 C 351.714844 153.894531 334.175781 156.421875 324.066406 161.503906 L 350.847656 85.410156 L 246.28125 152.238281 L 212.878906 152.238281 L 212.878906 85.410156 Z M 112.664062 85.414062 " clip-rule="nonzero"/></clipPath><clipPath id="id16"><path d="M 53.117188 154 L 79 154 L 79 184 L 53.117188 184 Z M 53.117188 154 " clip-rule="nonzero"/></clipPath><clipPath id="id17"><path d="M 112.664062 85.414062 L 112.664062 152.246094 L 80.714844 152.246094 L 80.714844 185.660156 L 53.960938 185.660156 L 53.664062 188.566406 C 51.992188 206.769531 55.167969 223.558594 62.46875 237.917969 L 64.917969 242.320312 C 66.371094 244.957031 68.113281 247.4375 69.914062 249.855469 C 71.710938 252.273438 72.359375 253.609375 73.5 255.214844 C 92.796875 276.890625 121.566406 287.351562 154.78125 287.351562 C 228.339844 287.351562 290.765625 254.75 318.398438 181.523438 C 337.992188 183.53125 356.800781 178.503906 365.367188 161.773438 C 351.714844 153.894531 334.175781 156.421875 324.066406 161.503906 L 350.847656 85.410156 L 246.28125 152.238281 L 212.878906 152.238281 L 212.878906 85.410156 Z M 112.664062 85.414062 " clip-rule="nonzero"/></clipPath><clipPath id="id18"><path d="M 53.117188 123 L 75 123 L 75 148 L 53.117188 148 Z M 53.117188 123 " clip-rule="nonzero"/></clipPath><clipPath id="id19"><path d="M 112.664062 85.414062 L 112.664062 152.246094 L 80.714844 152.246094 L 80.714844 185.660156 L 53.960938 185.660156 L 53.664062 188.566406 C 51.992188 206.769531 55.167969 223.558594 62.46875 237.917969 L 64.917969 242.320312 C 66.371094 244.957031 68.113281 247.4375 69.914062 249.855469 C 71.710938 252.273438 72.359375 253.609375 73.5 255.214844 C 92.796875 276.890625 121.566406 287.351562 154.78125 287.351562 C 228.339844 287.351562 290.765625 254.75 318.398438 181.523438 C 337.992188 183.53125 356.800781 178.503906 365.367188 161.773438 C 351.714844 153.894531 334.175781 156.421875 324.066406 161.503906 L 350.847656 85.410156 L 246.28125 152.238281 L 212.878906 152.238281 L 212.878906 85.410156 Z M 112.664062 85.414062 " clip-rule="nonzero"/></clipPath><clipPath id="id20"><path d="M 53.117188 122 L 76 122 L 76 149 L 53.117188 149 Z M 53.117188 122 " clip-rule="nonzero"/></clipPath><clipPath id="id21"><path d="M 112.664062 85.414062 L 112.664062 152.246094 L 80.714844 152.246094 L 80.714844 185.660156 L 53.960938 185.660156 L 53.664062 188.566406 C 51.992188 206.769531 55.167969 223.558594 62.46875 237.917969 L 64.917969 242.320312 C 66.371094 244.957031 68.113281 247.4375 69.914062 249.855469 C 71.710938 252.273438 72.359375 253.609375 73.5 255.214844 C 92.796875 276.890625 121.566406 287.351562 154.78125 287.351562 C 228.339844 287.351562 290.765625 254.75 318.398438 181.523438 C 337.992188 183.53125 356.800781 178.503906 365.367188 161.773438 C 351.714844 153.894531 334.175781 156.421875 324.066406 161.503906 L 350.847656 85.410156 L 246.28125 152.238281 L 212.878906 152.238281 L 212.878906 85.410156 Z M 112.664062 85.414062 " clip-rule="nonzero"/></clipPath><clipPath id="id22"><path d="M 53.117188 156 L 75 156 L 75 181 L 53.117188 181 Z M 53.117188 156 " clip-rule="nonzero"/></clipPath><clipPath id="id23"><path d="M 112.664062 85.414062 L 112.664062 152.246094 L 80.714844 152.246094 L 80.714844 185.660156 L 53.960938 185.660156 L 53.664062 188.566406 C 51.992188 206.769531 55.167969 223.558594 62.46875 237.917969 L 64.917969 242.320312 C 66.371094 244.957031 68.113281 247.4375 69.914062 249.855469 C 71.710938 252.273438 72.359375 253.609375 73.5 255.214844 C 92.796875 276.890625 121.566406 287.351562 154.78125 287.351562 C 228.339844 287.351562 290.765625 254.75 318.398438 181.523438 C 337.992188 183.53125 356.800781 178.503906 365.367188 161.773438 C 351.714844 153.894531 334.175781 156.421875 324.066406 161.503906 L 350.847656 85.410156 L 246.28125 152.238281 L 212.878906 152.238281 L 212.878906 85.410156 Z M 112.664062 85.414062 " clip-rule="nonzero"/></clipPath><clipPath id="id24"><path d="M 53.117188 155 L 76 155 L 76 183 L 53.117188 183 Z M 53.117188 155 " clip-rule="nonzero"/></clipPath><clipPath id="id25"><path d="M 112.664062 85.414062 L 112.664062 152.246094 L 80.714844 152.246094 L 80.714844 185.660156 L 53.960938 185.660156 L 53.664062 188.566406 C 51.992188 206.769531 55.167969 223.558594 62.46875 237.917969 L 64.917969 242.320312 C 66.371094 244.957031 68.113281 247.4375 69.914062 249.855469 C 71.710938 252.273438 72.359375 253.609375 73.5 255.214844 C 92.796875 276.890625 121.566406 287.351562 154.78125 287.351562 C 228.339844 287.351562 290.765625 254.75 318.398438 181.523438 C 337.992188 183.53125 356.800781 178.503906 365.367188 161.773438 C 351.714844 153.894531 334.175781 156.421875 324.066406 161.503906 L 350.847656 85.410156 L 246.28125 152.238281 L 212.878906 152.238281 L 212.878906 85.410156 Z M 112.664062 85.414062 " clip-rule="nonzero"/></clipPath><clipPath id="id26"><path d="M 82 154 L 112 154 L 112 184 L 82 184 Z M 82 154 " clip-rule="nonzero"/></clipPath><clipPath id="id27"><path d="M 112.664062 85.414062 L 112.664062 152.246094 L 80.714844 152.246094 L 80.714844 185.660156 L 53.960938 185.660156 L 53.664062 188.566406 C 51.992188 206.769531 55.167969 223.558594 62.46875 237.917969 L 64.917969 242.320312 C 66.371094 244.957031 68.113281 247.4375 69.914062 249.855469 C 71.710938 252.273438 72.359375 253.609375 73.5 255.214844 C 92.796875 276.890625 121.566406 287.351562 154.78125 287.351562 C 228.339844 287.351562 290.765625 254.75 318.398438 181.523438 C 337.992188 183.53125 356.800781 178.503906 365.367188 161.773438 C 351.714844 153.894531 334.175781 156.421875 324.066406 161.503906 L 350.847656 85.410156 L 246.28125 152.238281 L 212.878906 152.238281 L 212.878906 85.410156 Z M 112.664062 85.414062 " clip-rule="nonzero"/></clipPath><clipPath id="id28"><path d="M 82 121 L 112 121 L 112 151 L 82 151 Z M 82 121 " clip-rule="nonzero"/></clipPath><clipPath id="id29"><path d="M 112.664062 85.414062 L 112.664062 152.246094 L 80.714844 152.246094 L 80.714844 185.660156 L 53.960938 185.660156 L 53.664062 188.566406 C 51.992188 206.769531 55.167969 223.558594 62.46875 237.917969 L 64.917969 242.320312 C 66.371094 244.957031 68.113281 247.4375 69.914062 249.855469 C 71.710938 252.273438 72.359375 253.609375 73.5 255.214844 C 92.796875 276.890625 121.566406 287.351562 154.78125 287.351562 C 228.339844 287.351562 290.765625 254.75 318.398438 181.523438 C 337.992188 183.53125 356.800781 178.503906 365.367188 161.773438 C 351.714844 153.894531 334.175781 156.421875 324.066406 161.503906 L 350.847656 85.410156 L 246.28125 152.238281 L 212.878906 152.238281 L 212.878906 85.410156 Z M 112.664062 85.414062 " clip-rule="nonzero"/></clipPath><clipPath id="id30"><path d="M 86 156 L 108 156 L 108 181 L 86 181 Z M 86 156 " clip-rule="nonzero"/></clipPath><clipPath id="id31"><path d="M 112.664062 85.414062 L 112.664062 152.246094 L 80.714844 152.246094 L 80.714844 185.660156 L 53.960938 185.660156 L 53.664062 188.566406 C 51.992188 206.769531 55.167969 223.558594 62.46875 237.917969 L 64.917969 242.320312 C 66.371094 244.957031 68.113281 247.4375 69.914062 249.855469 C 71.710938 252.273438 72.359375 253.609375 73.5 255.214844 C 92.796875 276.890625 121.566406 287.351562 154.78125 287.351562 C 228.339844 287.351562 290.765625 254.75 318.398438 181.523438 C 337.992188 183.53125 356.800781 178.503906 365.367188 161.773438 C 351.714844 153.894531 334.175781 156.421875 324.066406 161.503906 L 350.847656 85.410156 L 246.28125 152.238281 L 212.878906 152.238281 L 212.878906 85.410156 Z M 112.664062 85.414062 " clip-rule="nonzero"/></clipPath><clipPath id="id32"><path d="M 84 155 L 109 155 L 109 183 L 84 183 Z M 84 155 " clip-rule="nonzero"/></clipPath><clipPath id="id33"><path d="M 112.664062 85.414062 L 112.664062 152.246094 L 80.714844 152.246094 L 80.714844 185.660156 L 53.960938 185.660156 L 53.664062 188.566406 C 51.992188 206.769531 55.167969 223.558594 62.46875 237.917969 L 64.917969 242.320312 C 66.371094 244.957031 68.113281 247.4375 69.914062 249.855469 C 71.710938 252.273438 72.359375 253.609375 73.5 255.214844 C 92.796875 276.890625 121.566406 287.351562 154.78125 287.351562 C 228.339844 287.351562 290.765625 254.75 318.398438 181.523438 C 337.992188 183.53125 356.800781 178.503906 365.367188 161.773438 C 351.714844 153.894531 334.175781 156.421875 324.066406 161.503906 L 350.847656 85.410156 L 246.28125 152.238281 L 212.878906 152.238281 L 212.878906 85.410156 Z M 112.664062 85.414062 " clip-rule="nonzero"/></clipPath><clipPath id="id34"><path d="M 86 123 L 108 123 L 108 148 L 86 148 Z M 86 123 " clip-rule="nonzero"/></clipPath><clipPath id="id35"><path d="M 112.664062 85.414062 L 112.664062 152.246094 L 80.714844 152.246094 L 80.714844 185.660156 L 53.960938 185.660156 L 53.664062 188.566406 C 51.992188 206.769531 55.167969 223.558594 62.46875 237.917969 L 64.917969 242.320312 C 66.371094 244.957031 68.113281 247.4375 69.914062 249.855469 C 71.710938 252.273438 72.359375 253.609375 73.5 255.214844 C 92.796875 276.890625 121.566406 287.351562 154.78125 287.351562 C 228.339844 287.351562 290.765625 254.75 318.398438 181.523438 C 337.992188 183.53125 356.800781 178.503906 365.367188 161.773438 C 351.714844 153.894531 334.175781 156.421875 324.066406 161.503906 L 350.847656 85.410156 L 246.28125 152.238281 L 212.878906 152.238281 L 212.878906 85.410156 Z M 112.664062 85.414062 " clip-rule="nonzero"/></clipPath><clipPath id="id36"><path d="M 84 122 L 109 122 L 109 149 L 84 149 Z M 84 122 " clip-rule="nonzero"/></clipPath><clipPath id="id37"><path d="M 112.664062 85.414062 L 112.664062 152.246094 L 80.714844 152.246094 L 80.714844 185.660156 L 53.960938 185.660156 L 53.664062 188.566406 C 51.992188 206.769531 55.167969 223.558594 62.46875 237.917969 L 64.917969 242.320312 C 66.371094 244.957031 68.113281 247.4375 69.914062 249.855469 C 71.710938 252.273438 72.359375 253.609375 73.5 255.214844 C 92.796875 276.890625 121.566406 287.351562 154.78125 287.351562 C 228.339844 287.351562 290.765625 254.75 318.398438 181.523438 C 337.992188 183.53125 356.800781 178.503906 365.367188 161.773438 C 351.714844 153.894531 334.175781 156.421875 324.066406 161.503906 L 350.847656 85.410156 L 246.28125 152.238281 L 212.878906 152.238281 L 212.878906 85.410156 Z M 112.664062 85.414062 " clip-rule="nonzero"/></clipPath><clipPath id="id38"><path d="M 115 121 L 145 121 L 145 151 L 115 151 Z M 115 121 " clip-rule="nonzero"/></clipPath><clipPath id="id39"><path d="M 112.664062 85.414062 L 112.664062 152.246094 L 80.714844 152.246094 L 80.714844 185.660156 L 53.960938 185.660156 L 53.664062 188.566406 C 51.992188 206.769531 55.167969 223.558594 62.46875 237.917969 L 64.917969 242.320312 C 66.371094 244.957031 68.113281 247.4375 69.914062 249.855469 C 71.710938 252.273438 72.359375 253.609375 73.5 255.214844 C 92.796875 276.890625 121.566406 287.351562 154.78125 287.351562 C 228.339844 287.351562 290.765625 254.75 318.398438 181.523438 C 337.992188 183.53125 356.800781 178.503906 365.367188 161.773438 C 351.714844 153.894531 334.175781 156.421875 324.066406 161.503906 L 350.847656 85.410156 L 246.28125 152.238281 L 212.878906 152.238281 L 212.878906 85.410156 Z M 112.664062 85.414062 " clip-rule="nonzero"/></clipPath><clipPath id="id40"><path d="M 115 154 L 145 154 L 145 184 L 115 184 Z M 115 154 " clip-rule="nonzero"/></clipPath><clipPath id="id41"><path d="M 112.664062 85.414062 L 112.664062 152.246094 L 80.714844 152.246094 L 80.714844 185.660156 L 53.960938 185.660156 L 53.664062 188.566406 C 51.992188 206.769531 55.167969 223.558594 62.46875 237.917969 L 64.917969 242.320312 C 66.371094 244.957031 68.113281 247.4375 69.914062 249.855469 C 71.710938 252.273438 72.359375 253.609375 73.5 255.214844 C 92.796875 276.890625 121.566406 287.351562 154.78125 287.351562 C 228.339844 287.351562 290.765625 254.75 318.398438 181.523438 C 337.992188 183.53125 356.800781 178.503906 365.367188 161.773438 C 351.714844 153.894531 334.175781 156.421875 324.066406 161.503906 L 350.847656 85.410156 L 246.28125 152.238281 L 212.878906 152.238281 L 212.878906 85.410156 Z M 112.664062 85.414062 " clip-rule="nonzero"/></clipPath><clipPath id="id42"><path d="M 119 123 L 141 123 L 141 148 L 119 148 Z M 119 123 " clip-rule="nonzero"/></clipPath><clipPath id="id43"><path d="M 112.664062 85.414062 L 112.664062 152.246094 L 80.714844 152.246094 L 80.714844 185.660156 L 53.960938 185.660156 L 53.664062 188.566406 C 51.992188 206.769531 55.167969 223.558594 62.46875 237.917969 L 64.917969 242.320312 C 66.371094 244.957031 68.113281 247.4375 69.914062 249.855469 C 71.710938 252.273438 72.359375 253.609375 73.5 255.214844 C 92.796875 276.890625 121.566406 287.351562 154.78125 287.351562 C 228.339844 287.351562 290.765625 254.75 318.398438 181.523438 C 337.992188 183.53125 356.800781 178.503906 365.367188 161.773438 C 351.714844 153.894531 334.175781 156.421875 324.066406 161.503906 L 350.847656 85.410156 L 246.28125 152.238281 L 212.878906 152.238281 L 212.878906 85.410156 Z M 112.664062 85.414062 " clip-rule="nonzero"/></clipPath><clipPath id="id44"><path d="M 118 122 L 143 122 L 143 149 L 118 149 Z M 118 122 " clip-rule="nonzero"/></clipPath><clipPath id="id45"><path d="M 112.664062 85.414062 L 112.664062 152.246094 L 80.714844 152.246094 L 80.714844 185.660156 L 53.960938 185.660156 L 53.664062 188.566406 C 51.992188 206.769531 55.167969 223.558594 62.46875 237.917969 L 64.917969 242.320312 C 66.371094 244.957031 68.113281 247.4375 69.914062 249.855469 C 71.710938 252.273438 72.359375 253.609375 73.5 255.214844 C 92.796875 276.890625 121.566406 287.351562 154.78125 287.351562 C 228.339844 287.351562 290.765625 254.75 318.398438 181.523438 C 337.992188 183.53125 356.800781 178.503906 365.367188 161.773438 C 351.714844 153.894531 334.175781 156.421875 324.066406 161.503906 L 350.847656 85.410156 L 246.28125 152.238281 L 212.878906 152.238281 L 212.878906 85.410156 Z M 112.664062 85.414062 " clip-rule="nonzero"/></clipPath><clipPath id="id46"><path d="M 119 156 L 141 156 L 141 181 L 119 181 Z M 119 156 " clip-rule="nonzero"/></clipPath><clipPath id="id47"><path d="M 112.664062 85.414062 L 112.664062 152.246094 L 80.714844 152.246094 L 80.714844 185.660156 L 53.960938 185.660156 L 53.664062 188.566406 C 51.992188 206.769531 55.167969 223.558594 62.46875 237.917969 L 64.917969 242.320312 C 66.371094 244.957031 68.113281 247.4375 69.914062 249.855469 C 71.710938 252.273438 72.359375 253.609375 73.5 255.214844 C 92.796875 276.890625 121.566406 287.351562 154.78125 287.351562 C 228.339844 287.351562 290.765625 254.75 318.398438 181.523438 C 337.992188 183.53125 356.800781 178.503906 365.367188 161.773438 C 351.714844 153.894531 334.175781 156.421875 324.066406 161.503906 L 350.847656 85.410156 L 246.28125 152.238281 L 212.878906 152.238281 L 212.878906 85.410156 Z M 112.664062 85.414062 " clip-rule="nonzero"/></clipPath><clipPath id="id48"><path d="M 118 155 L 143 155 L 143 183 L 118 183 Z M 118 155 " clip-rule="nonzero"/></clipPath><clipPath id="id49"><path d="M 112.664062 85.414062 L 112.664062 152.246094 L 80.714844 152.246094 L 80.714844 185.660156 L 53.960938 185.660156 L 53.664062 188.566406 C 51.992188 206.769531 55.167969 223.558594 62.46875 237.917969 L 64.917969 242.320312 C 66.371094 244.957031 68.113281 247.4375 69.914062 249.855469 C 71.710938 252.273438 72.359375 253.609375 73.5 255.214844 C 92.796875 276.890625 121.566406 287.351562 154.78125 287.351562 C 228.339844 287.351562 290.765625 254.75 318.398438 181.523438 C 337.992188 183.53125 356.800781 178.503906 365.367188 161.773438 C 351.714844 153.894531 334.175781 156.421875 324.066406 161.503906 L 350.847656 85.410156 L 246.28125 152.238281 L 212.878906 152.238281 L 212.878906 85.410156 Z M 112.664062 85.414062 " clip-rule="nonzero"/></clipPath><clipPath id="id50"><path d="M 148 154 L 178 154 L 178 184 L 148 184 Z M 148 154 " clip-rule="nonzero"/></clipPath><clipPath id="id51"><path d="M 112.664062 85.414062 L 112.664062 152.246094 L 80.714844 152.246094 L 80.714844 185.660156 L 53.960938 185.660156 L 53.664062 188.566406 C 51.992188 206.769531 55.167969 223.558594 62.46875 237.917969 L 64.917969 242.320312 C 66.371094 244.957031 68.113281 247.4375 69.914062 249.855469 C 71.710938 252.273438 72.359375 253.609375 73.5 255.214844 C 92.796875 276.890625 121.566406 287.351562 154.78125 287.351562 C 228.339844 287.351562 290.765625 254.75 318.398438 181.523438 C 337.992188 183.53125 356.800781 178.503906 365.367188 161.773438 C 351.714844 153.894531 334.175781 156.421875 324.066406 161.503906 L 350.847656 85.410156 L 246.28125 152.238281 L 212.878906 152.238281 L 212.878906 85.410156 Z M 112.664062 85.414062 " clip-rule="nonzero"/></clipPath><clipPath id="id52"><path d="M 148 121 L 178 121 L 178 151 L 148 151 Z M 148 121 " clip-rule="nonzero"/></clipPath><clipPath id="id53"><path d="M 112.664062 85.414062 L 112.664062 152.246094 L 80.714844 152.246094 L 80.714844 185.660156 L 53.960938 185.660156 L 53.664062 188.566406 C 51.992188 206.769531 55.167969 223.558594 62.46875 237.917969 L 64.917969 242.320312 C 66.371094 244.957031 68.113281 247.4375 69.914062 249.855469 C 71.710938 252.273438 72.359375 253.609375 73.5 255.214844 C 92.796875 276.890625 121.566406 287.351562 154.78125 287.351562 C 228.339844 287.351562 290.765625 254.75 318.398438 181.523438 C 337.992188 183.53125 356.800781 178.503906 365.367188 161.773438 C 351.714844 153.894531 334.175781 156.421875 324.066406 161.503906 L 350.847656 85.410156 L 246.28125 152.238281 L 212.878906 152.238281 L 212.878906 85.410156 Z M 112.664062 85.414062 " clip-rule="nonzero"/></clipPath><clipPath id="id54"><path d="M 152 156 L 175 156 L 175 181 L 152 181 Z M 152 156 " clip-rule="nonzero"/></clipPath><clipPath id="id55"><path d="M 112.664062 85.414062 L 112.664062 152.246094 L 80.714844 152.246094 L 80.714844 185.660156 L 53.960938 185.660156 L 53.664062 188.566406 C 51.992188 206.769531 55.167969 223.558594 62.46875 237.917969 L 64.917969 242.320312 C 66.371094 244.957031 68.113281 247.4375 69.914062 249.855469 C 71.710938 252.273438 72.359375 253.609375 73.5 255.214844 C 92.796875 276.890625 121.566406 287.351562 154.78125 287.351562 C 228.339844 287.351562 290.765625 254.75 318.398438 181.523438 C 337.992188 183.53125 356.800781 178.503906 365.367188 161.773438 C 351.714844 153.894531 334.175781 156.421875 324.066406 161.503906 L 350.847656 85.410156 L 246.28125 152.238281 L 212.878906 152.238281 L 212.878906 85.410156 Z M 112.664062 85.414062 " clip-rule="nonzero"/></clipPath><clipPath id="id56"><path d="M 151 155 L 176 155 L 176 183 L 151 183 Z M 151 155 " clip-rule="nonzero"/></clipPath><clipPath id="id57"><path d="M 112.664062 85.414062 L 112.664062 152.246094 L 80.714844 152.246094 L 80.714844 185.660156 L 53.960938 185.660156 L 53.664062 188.566406 C 51.992188 206.769531 55.167969 223.558594 62.46875 237.917969 L 64.917969 242.320312 C 66.371094 244.957031 68.113281 247.4375 69.914062 249.855469 C 71.710938 252.273438 72.359375 253.609375 73.5 255.214844 C 92.796875 276.890625 121.566406 287.351562 154.78125 287.351562 C 228.339844 287.351562 290.765625 254.75 318.398438 181.523438 C 337.992188 183.53125 356.800781 178.503906 365.367188 161.773438 C 351.714844 153.894531 334.175781 156.421875 324.066406 161.503906 L 350.847656 85.410156 L 246.28125 152.238281 L 212.878906 152.238281 L 212.878906 85.410156 Z M 112.664062 85.414062 " clip-rule="nonzero"/></clipPath><clipPath id="id58"><path d="M 152 123 L 175 123 L 175 148 L 152 148 Z M 152 123 " clip-rule="nonzero"/></clipPath><clipPath id="id59"><path d="M 112.664062 85.414062 L 112.664062 152.246094 L 80.714844 152.246094 L 80.714844 185.660156 L 53.960938 185.660156 L 53.664062 188.566406 C 51.992188 206.769531 55.167969 223.558594 62.46875 237.917969 L 64.917969 242.320312 C 66.371094 244.957031 68.113281 247.4375 69.914062 249.855469 C 71.710938 252.273438 72.359375 253.609375 73.5 255.214844 C 92.796875 276.890625 121.566406 287.351562 154.78125 287.351562 C 228.339844 287.351562 290.765625 254.75 318.398438 181.523438 C 337.992188 183.53125 356.800781 178.503906 365.367188 161.773438 C 351.714844 153.894531 334.175781 156.421875 324.066406 161.503906 L 350.847656 85.410156 L 246.28125 152.238281 L 212.878906 152.238281 L 212.878906 85.410156 Z M 112.664062 85.414062 " clip-rule="nonzero"/></clipPath><clipPath id="id60"><path d="M 151 122 L 176 122 L 176 149 L 151 149 Z M 151 122 " clip-rule="nonzero"/></clipPath><clipPath id="id61"><path d="M 112.664062 85.414062 L 112.664062 152.246094 L 80.714844 152.246094 L 80.714844 185.660156 L 53.960938 185.660156 L 53.664062 188.566406 C 51.992188 206.769531 55.167969 223.558594 62.46875 237.917969 L 64.917969 242.320312 C 66.371094 244.957031 68.113281 247.4375 69.914062 249.855469 C 71.710938 252.273438 72.359375 253.609375 73.5 255.214844 C 92.796875 276.890625 121.566406 287.351562 154.78125 287.351562 C 228.339844 287.351562 290.765625 254.75 318.398438 181.523438 C 337.992188 183.53125 356.800781 178.503906 365.367188 161.773438 C 351.714844 153.894531 334.175781 156.421875 324.066406 161.503906 L 350.847656 85.410156 L 246.28125 152.238281 L 212.878906 152.238281 L 212.878906 85.410156 Z M 112.664062 85.414062 " clip-rule="nonzero"/></clipPath><clipPath id="id62"><path d="M 182 121 L 211 121 L 211 151 L 182 151 Z M 182 121 " clip-rule="nonzero"/></clipPath><clipPath id="id63"><path d="M 112.664062 85.414062 L 112.664062 152.246094 L 80.714844 152.246094 L 80.714844 185.660156 L 53.960938 185.660156 L 53.664062 188.566406 C 51.992188 206.769531 55.167969 223.558594 62.46875 237.917969 L 64.917969 242.320312 C 66.371094 244.957031 68.113281 247.4375 69.914062 249.855469 C 71.710938 252.273438 72.359375 253.609375 73.5 255.214844 C 92.796875 276.890625 121.566406 287.351562 154.78125 287.351562 C 228.339844 287.351562 290.765625 254.75 318.398438 181.523438 C 337.992188 183.53125 356.800781 178.503906 365.367188 161.773438 C 351.714844 153.894531 334.175781 156.421875 324.066406 161.503906 L 350.847656 85.410156 L 246.28125 152.238281 L 212.878906 152.238281 L 212.878906 85.410156 Z M 112.664062 85.414062 " clip-rule="nonzero"/></clipPath><clipPath id="id64"><path d="M 182 154 L 211 154 L 211 184 L 182 184 Z M 182 154 " clip-rule="nonzero"/></clipPath><clipPath id="id65"><path d="M 112.664062 85.414062 L 112.664062 152.246094 L 80.714844 152.246094 L 80.714844 185.660156 L 53.960938 185.660156 L 53.664062 188.566406 C 51.992188 206.769531 55.167969 223.558594 62.46875 237.917969 L 64.917969 242.320312 C 66.371094 244.957031 68.113281 247.4375 69.914062 249.855469 C 71.710938 252.273438 72.359375 253.609375 73.5 255.214844 C 92.796875 276.890625 121.566406 287.351562 154.78125 287.351562 C 228.339844 287.351562 290.765625 254.75 318.398438 181.523438 C 337.992188 183.53125 356.800781 178.503906 365.367188 161.773438 C 351.714844 153.894531 334.175781 156.421875 324.066406 161.503906 L 350.847656 85.410156 L 246.28125 152.238281 L 212.878906 152.238281 L 212.878906 85.410156 Z M 112.664062 85.414062 " clip-rule="nonzero"/></clipPath><clipPath id="id66"><path d="M 185 123 L 208 123 L 208 148 L 185 148 Z M 185 123 " clip-rule="nonzero"/></clipPath><clipPath id="id67"><path d="M 112.664062 85.414062 L 112.664062 152.246094 L 80.714844 152.246094 L 80.714844 185.660156 L 53.960938 185.660156 L 53.664062 188.566406 C 51.992188 206.769531 55.167969 223.558594 62.46875 237.917969 L 64.917969 242.320312 C 66.371094 244.957031 68.113281 247.4375 69.914062 249.855469 C 71.710938 252.273438 72.359375 253.609375 73.5 255.214844 C 92.796875 276.890625 121.566406 287.351562 154.78125 287.351562 C 228.339844 287.351562 290.765625 254.75 318.398438 181.523438 C 337.992188 183.53125 356.800781 178.503906 365.367188 161.773438 C 351.714844 153.894531 334.175781 156.421875 324.066406 161.503906 L 350.847656 85.410156 L 246.28125 152.238281 L 212.878906 152.238281 L 212.878906 85.410156 Z M 112.664062 85.414062 " clip-rule="nonzero"/></clipPath><clipPath id="id68"><path d="M 184 122 L 209 122 L 209 149 L 184 149 Z M 184 122 " clip-rule="nonzero"/></clipPath><clipPath id="id69"><path d="M 112.664062 85.414062 L 112.664062 152.246094 L 80.714844 152.246094 L 80.714844 185.660156 L 53.960938 185.660156 L 53.664062 188.566406 C 51.992188 206.769531 55.167969 223.558594 62.46875 237.917969 L 64.917969 242.320312 C 66.371094 244.957031 68.113281 247.4375 69.914062 249.855469 C 71.710938 252.273438 72.359375 253.609375 73.5 255.214844 C 92.796875 276.890625 121.566406 287.351562 154.78125 287.351562 C 228.339844 287.351562 290.765625 254.75 318.398438 181.523438 C 337.992188 183.53125 356.800781 178.503906 365.367188 161.773438 C 351.714844 153.894531 334.175781 156.421875 324.066406 161.503906 L 350.847656 85.410156 L 246.28125 152.238281 L 212.878906 152.238281 L 212.878906 85.410156 Z M 112.664062 85.414062 " clip-rule="nonzero"/></clipPath><clipPath id="id70"><path d="M 185 156 L 208 156 L 208 181 L 185 181 Z M 185 156 " clip-rule="nonzero"/></clipPath><clipPath id="id71"><path d="M 112.664062 85.414062 L 112.664062 152.246094 L 80.714844 152.246094 L 80.714844 185.660156 L 53.960938 185.660156 L 53.664062 188.566406 C 51.992188 206.769531 55.167969 223.558594 62.46875 237.917969 L 64.917969 242.320312 C 66.371094 244.957031 68.113281 247.4375 69.914062 249.855469 C 71.710938 252.273438 72.359375 253.609375 73.5 255.214844 C 92.796875 276.890625 121.566406 287.351562 154.78125 287.351562 C 228.339844 287.351562 290.765625 254.75 318.398438 181.523438 C 337.992188 183.53125 356.800781 178.503906 365.367188 161.773438 C 351.714844 153.894531 334.175781 156.421875 324.066406 161.503906 L 350.847656 85.410156 L 246.28125 152.238281 L 212.878906 152.238281 L 212.878906 85.410156 Z M 112.664062 85.414062 " clip-rule="nonzero"/></clipPath><clipPath id="id72"><path d="M 184 155 L 209 155 L 209 183 L 184 183 Z M 184 155 " clip-rule="nonzero"/></clipPath><clipPath id="id73"><path d="M 112.664062 85.414062 L 112.664062 152.246094 L 80.714844 152.246094 L 80.714844 185.660156 L 53.960938 185.660156 L 53.664062 188.566406 C 51.992188 206.769531 55.167969 223.558594 62.46875 237.917969 L 64.917969 242.320312 C 66.371094 244.957031 68.113281 247.4375 69.914062 249.855469 C 71.710938 252.273438 72.359375 253.609375 73.5 255.214844 C 92.796875 276.890625 121.566406 287.351562 154.78125 287.351562 C 228.339844 287.351562 290.765625 254.75 318.398438 181.523438 C 337.992188 183.53125 356.800781 178.503906 365.367188 161.773438 C 351.714844 153.894531 334.175781 156.421875 324.066406 161.503906 L 350.847656 85.410156 L 246.28125 152.238281 L 212.878906 152.238281 L 212.878906 85.410156 Z M 112.664062 85.414062 " clip-rule="nonzero"/></clipPath><clipPath id="id74"><path d="M 215 154 L 245 154 L 245 184 L 215 184 Z M 215 154 " clip-rule="nonzero"/></clipPath><clipPath id="id75"><path d="M 112.664062 85.414062 L 112.664062 152.246094 L 80.714844 152.246094 L 80.714844 185.660156 L 53.960938 185.660156 L 53.664062 188.566406 C 51.992188 206.769531 55.167969 223.558594 62.46875 237.917969 L 64.917969 242.320312 C 66.371094 244.957031 68.113281 247.4375 69.914062 249.855469 C 71.710938 252.273438 72.359375 253.609375 73.5 255.214844 C 92.796875 276.890625 121.566406 287.351562 154.78125 287.351562 C 228.339844 287.351562 290.765625 254.75 318.398438 181.523438 C 337.992188 183.53125 356.800781 178.503906 365.367188 161.773438 C 351.714844 153.894531 334.175781 156.421875 324.066406 161.503906 L 350.847656 85.410156 L 246.28125 152.238281 L 212.878906 152.238281 L 212.878906 85.410156 Z M 112.664062 85.414062 " clip-rule="nonzero"/></clipPath><clipPath id="id76"><path d="M 215 121 L 245 121 L 245 151 L 215 151 Z M 215 121 " clip-rule="nonzero"/></clipPath><clipPath id="id77"><path d="M 112.664062 85.414062 L 112.664062 152.246094 L 80.714844 152.246094 L 80.714844 185.660156 L 53.960938 185.660156 L 53.664062 188.566406 C 51.992188 206.769531 55.167969 223.558594 62.46875 237.917969 L 64.917969 242.320312 C 66.371094 244.957031 68.113281 247.4375 69.914062 249.855469 C 71.710938 252.273438 72.359375 253.609375 73.5 255.214844 C 92.796875 276.890625 121.566406 287.351562 154.78125 287.351562 C 228.339844 287.351562 290.765625 254.75 318.398438 181.523438 C 337.992188 183.53125 356.800781 178.503906 365.367188 161.773438 C 351.714844 153.894531 334.175781 156.421875 324.066406 161.503906 L 350.847656 85.410156 L 246.28125 152.238281 L 212.878906 152.238281 L 212.878906 85.410156 Z M 112.664062 85.414062 " clip-rule="nonzero"/></clipPath><clipPath id="id78"><path d="M 218 156 L 241 156 L 241 181 L 218 181 Z M 218 156 " clip-rule="nonzero"/></clipPath><clipPath id="id79"><path d="M 112.664062 85.414062 L 112.664062 152.246094 L 80.714844 152.246094 L 80.714844 185.660156 L 53.960938 185.660156 L 53.664062 188.566406 C 51.992188 206.769531 55.167969 223.558594 62.46875 237.917969 L 64.917969 242.320312 C 66.371094 244.957031 68.113281 247.4375 69.914062 249.855469 C 71.710938 252.273438 72.359375 253.609375 73.5 255.214844 C 92.796875 276.890625 121.566406 287.351562 154.78125 287.351562 C 228.339844 287.351562 290.765625 254.75 318.398438 181.523438 C 337.992188 183.53125 356.800781 178.503906 365.367188 161.773438 C 351.714844 153.894531 334.175781 156.421875 324.066406 161.503906 L 350.847656 85.410156 L 246.28125 152.238281 L 212.878906 152.238281 L 212.878906 85.410156 Z M 112.664062 85.414062 " clip-rule="nonzero"/></clipPath><clipPath id="id80"><path d="M 217 155 L 242 155 L 242 183 L 217 183 Z M 217 155 " clip-rule="nonzero"/></clipPath><clipPath id="id81"><path d="M 112.664062 85.414062 L 112.664062 152.246094 L 80.714844 152.246094 L 80.714844 185.660156 L 53.960938 185.660156 L 53.664062 188.566406 C 51.992188 206.769531 55.167969 223.558594 62.46875 237.917969 L 64.917969 242.320312 C 66.371094 244.957031 68.113281 247.4375 69.914062 249.855469 C 71.710938 252.273438 72.359375 253.609375 73.5 255.214844 C 92.796875 276.890625 121.566406 287.351562 154.78125 287.351562 C 228.339844 287.351562 290.765625 254.75 318.398438 181.523438 C 337.992188 183.53125 356.800781 178.503906 365.367188 161.773438 C 351.714844 153.894531 334.175781 156.421875 324.066406 161.503906 L 350.847656 85.410156 L 246.28125 152.238281 L 212.878906 152.238281 L 212.878906 85.410156 Z M 112.664062 85.414062 " clip-rule="nonzero"/></clipPath><clipPath id="id82"><path d="M 218 123 L 241 123 L 241 148 L 218 148 Z M 218 123 " clip-rule="nonzero"/></clipPath><clipPath id="id83"><path d="M 112.664062 85.414062 L 112.664062 152.246094 L 80.714844 152.246094 L 80.714844 185.660156 L 53.960938 185.660156 L 53.664062 188.566406 C 51.992188 206.769531 55.167969 223.558594 62.46875 237.917969 L 64.917969 242.320312 C 66.371094 244.957031 68.113281 247.4375 69.914062 249.855469 C 71.710938 252.273438 72.359375 253.609375 73.5 255.214844 C 92.796875 276.890625 121.566406 287.351562 154.78125 287.351562 C 228.339844 287.351562 290.765625 254.75 318.398438 181.523438 C 337.992188 183.53125 356.800781 178.503906 365.367188 161.773438 C 351.714844 153.894531 334.175781 156.421875 324.066406 161.503906 L 350.847656 85.410156 L 246.28125 152.238281 L 212.878906 152.238281 L 212.878906 85.410156 Z M 112.664062 85.414062 " clip-rule="nonzero"/></clipPath><clipPath id="id84"><path d="M 217 122 L 242 122 L 242 149 L 217 149 Z M 217 122 " clip-rule="nonzero"/></clipPath><clipPath id="id85"><path d="M 112.664062 85.414062 L 112.664062 152.246094 L 80.714844 152.246094 L 80.714844 185.660156 L 53.960938 185.660156 L 53.664062 188.566406 C 51.992188 206.769531 55.167969 223.558594 62.46875 237.917969 L 64.917969 242.320312 C 66.371094 244.957031 68.113281 247.4375 69.914062 249.855469 C 71.710938 252.273438 72.359375 253.609375 73.5 255.214844 C 92.796875 276.890625 121.566406 287.351562 154.78125 287.351562 C 228.339844 287.351562 290.765625 254.75 318.398438 181.523438 C 337.992188 183.53125 356.800781 178.503906 365.367188 161.773438 C 351.714844 153.894531 334.175781 156.421875 324.066406 161.503906 L 350.847656 85.410156 L 246.28125 152.238281 L 212.878906 152.238281 L 212.878906 85.410156 Z M 112.664062 85.414062 " clip-rule="nonzero"/></clipPath><clipPath id="id86"><path d="M 53.117188 124 L 365.367188 124 L 365.367188 287.355469 L 53.117188 287.355469 Z M 53.117188 124 " clip-rule="nonzero"/></clipPath><clipPath id="id87"><path d="M 112.664062 85.414062 L 112.664062 152.246094 L 80.714844 152.246094 L 80.714844 185.660156 L 53.960938 185.660156 L 53.664062 188.566406 C 51.992188 206.769531 55.167969 223.558594 62.46875 237.917969 L 64.917969 242.320312 C 66.371094 244.957031 68.113281 247.4375 69.914062 249.855469 C 71.710938 252.273438 72.359375 253.609375 73.5 255.214844 C 92.796875 276.890625 121.566406 287.351562 154.78125 287.351562 C 228.339844 287.351562 290.765625 254.75 318.398438 181.523438 C 337.992188 183.53125 356.800781 178.503906 365.367188 161.773438 C 351.714844 153.894531 334.175781 156.421875 324.066406 161.503906 L 350.847656 85.410156 L 246.28125 152.238281 L 212.878906 152.238281 L 212.878906 85.410156 Z M 112.664062 85.414062 " clip-rule="nonzero"/></clipPath><clipPath id="id88"><path d="M 53.117188 211 L 365.367188 211 L 365.367188 287.355469 L 53.117188 287.355469 Z M 53.117188 211 " clip-rule="nonzero"/></clipPath><clipPath id="id89"><path d="M 112.664062 85.414062 L 112.664062 152.246094 L 80.714844 152.246094 L 80.714844 185.660156 L 53.960938 185.660156 L 53.664062 188.566406 C 51.992188 206.769531 55.167969 223.558594 62.46875 237.917969 L 64.917969 242.320312 C 66.371094 244.957031 68.113281 247.4375 69.914062 249.855469 C 71.710938 252.273438 72.359375 253.609375 73.5 255.214844 C 92.796875 276.890625 121.566406 287.351562 154.78125 287.351562 C 228.339844 287.351562 290.765625 254.75 318.398438 181.523438 C 337.992188 183.53125 356.800781 178.503906 365.367188 161.773438 C 351.714844 153.894531 334.175781 156.421875 324.066406 161.503906 L 350.847656 85.410156 L 246.28125 152.238281 L 212.878906 152.238281 L 212.878906 85.410156 Z M 112.664062 85.414062 " clip-rule="nonzero"/></clipPath><clipPath id="id90"><path d="M 67 251 L 164 251 L 164 287.355469 L 67 287.355469 Z M 67 251 " clip-rule="nonzero"/></clipPath><clipPath id="id91"><path d="M 112.664062 85.414062 L 112.664062 152.246094 L 80.714844 152.246094 L 80.714844 185.660156 L 53.960938 185.660156 L 53.664062 188.566406 C 51.992188 206.769531 55.167969 223.558594 62.46875 237.917969 L 64.917969 242.320312 C 66.371094 244.957031 68.113281 247.4375 69.914062 249.855469 C 71.710938 252.273438 72.359375 253.609375 73.5 255.214844 C 92.796875 276.890625 121.566406 287.351562 154.78125 287.351562 C 228.339844 287.351562 290.765625 254.75 318.398438 181.523438 C 337.992188 183.53125 356.800781 178.503906 365.367188 161.773438 C 351.714844 153.894531 334.175781 156.421875 324.066406 161.503906 L 350.847656 85.410156 L 246.28125 152.238281 L 212.878906 152.238281 L 212.878906 85.410156 Z M 112.664062 85.414062 " clip-rule="nonzero"/></clipPath><clipPath id="id92"><path d="M 53.117188 155 L 365.367188 155 L 365.367188 287.355469 L 53.117188 287.355469 Z M 53.117188 155 " clip-rule="nonzero"/></clipPath><clipPath id="id93"><path d="M 112.664062 85.414062 L 112.664062 152.246094 L 80.714844 152.246094 L 80.714844 185.660156 L 53.960938 185.660156 L 53.664062 188.566406 C 51.992188 206.769531 55.167969 223.558594 62.46875 237.917969 L 64.917969 242.320312 C 66.371094 244.957031 68.113281 247.4375 69.914062 249.855469 C 71.710938 252.273438 72.359375 253.609375 73.5 255.214844 C 92.796875 276.890625 121.566406 287.351562 154.78125 287.351562 C 228.339844 287.351562 290.765625 254.75 318.398438 181.523438 C 337.992188 183.53125 356.800781 178.503906 365.367188 161.773438 C 351.714844 153.894531 334.175781 156.421875 324.066406 161.503906 L 350.847656 85.410156 L 246.28125 152.238281 L 212.878906 152.238281 L 212.878906 85.410156 Z M 112.664062 85.414062 " clip-rule="nonzero"/></clipPath></defs><g clip-path="url(#id1)"><path fill="#394d54" d="M 216.484375 148.949219 L 249.6875 148.949219 L 249.6875 182.90625 L 266.480469 182.90625 C 274.382812 182.867188 282.074219 181.578125 289.554688 179.035156 C 293.171875 177.808594 297.214844 176.109375 300.769531 173.96875 C 296.082031 167.847656 293.691406 160.121094 292.90625 152.492188 C 291.945312 142.128906 294.039062 128.636719 301.054688 120.527344 L 304.546875 116.488281 L 308.714844 119.832031 C 319.191406 128.25 328 140.011719 329.554688 153.425781 C 342.164062 149.714844 356.972656 150.59375 368.09375 157.015625 L 372.65625 159.652344 L 370.257812 164.339844 C 360.921875 182.671875 341.257812 188.359375 322.042969 187.351562 C 293.289062 258.984375 230.695312 292.902344 154.796875 292.902344 C 115.585938 292.902344 79.609375 278.238281 59.132812 243.4375 C 57.925781 241.277344 56.90625 239.015625 55.8125 236.800781 C 48.890625 221.480469 46.585938 204.699219 48.144531 188.019531 L 48.617188 183 L 76.929688 183 L 76.929688 148.972656 L 110.132812 148.972656 L 110.132812 115.757812 L 176.554688 115.757812 L 176.554688 82.542969 L 216.402344 82.542969 L 216.402344 148.980469 " fill-opacity="1" fill-rule="nonzero"/></g><g clip-path="url(#id2)"><g clip-path="url(#id3)"><path fill="#20c2ef" d="M 182.171875 88.046875 L 210.953125 88.046875 L 210.953125 116.835938 L 182.167969 116.835938 Z M 182.171875 88.046875 " fill-opacity="1" fill-rule="nonzero"/></g></g><g clip-path="url(#id4)"><g clip-path="url(#id5)"><path fill="#000000" d="M 185.703125 114.4375 L 185.703125 90.441406 M 190.019531 114.4375 L 190.019531 90.441406 M 194.378906 114.4375 L 194.378906 90.441406 M 198.738281 114.4375 L 198.738281 90.441406 M 203.101562 114.4375 L 203.101562 90.441406 M 207.414062 114.4375 L 207.414062 90.441406 " fill-opacity="1" fill-rule="nonzero"/></g></g><g clip-path="url(#id6)"><g clip-path="url(#id7)"><path stroke-linecap="butt" transform="matrix(1.45232, 0, 0, 1.452805, 2.287784, 82.510161)" fill="none" stroke-linejoin="miter" d="M 126.29124 21.976341 L 126.29124 5.459263 M 129.263316 21.976341 L 129.263316 5.459263 M 132.264978 21.976341 L 132.264978 5.459263 M 135.26664 21.976341 L 135.26664 5.459263 M 138.270992 21.976341 L 138.270992 5.459263 M 141.240378 21.976341 L 141.240378 5.459263 " stroke="#394d54" stroke-width="1.56" stroke-opacity="1" stroke-miterlimit="4"/></g></g><g clip-path="url(#id8)"><g clip-path="url(#id9)"><path fill="#00acd3" d="M 215.382812 116.851562 L 244.164062 116.851562 L 244.164062 88.0625 L 215.378906 88.0625 Z M 215.382812 116.851562 " fill-opacity="1" fill-rule="nonzero"/></g></g><g clip-path="url(#id10)"><g clip-path="url(#id11)"><path fill="#000000" d="M 218.910156 90.445312 L 218.910156 114.441406 M 223.226562 90.445312 L 223.226562 114.441406 M 227.585938 90.445312 L 227.585938 114.441406 M 231.949219 90.445312 L 231.949219 114.441406 M 236.308594 90.445312 L 236.308594 114.441406 M 240.621094 90.445312 L 240.621094 114.441406 " fill-opacity="1" fill-rule="nonzero"/></g></g><g clip-path="url(#id12)"><g clip-path="url(#id13)"><path stroke-linecap="butt" transform="matrix(1.45232, 0, 0, -1.452805, 35.496539, 122.373244)" fill="none" stroke-linejoin="miter" d="M 126.290053 21.976749 L 126.290053 5.459671 M 129.262129 21.976749 L 129.262129 5.459671 M 132.263791 21.976749 L 132.263791 5.459671 M 135.268143 21.976749 L 135.268143 5.459671 M 138.269805 21.976749 L 138.269805 5.459671 M 141.239191 21.976749 L 141.239191 5.459671 " stroke="#394d54" stroke-width="1.56" stroke-opacity="1" stroke-miterlimit="4"/></g></g><g clip-path="url(#id14)"><g clip-path="url(#id15)"><path fill="#00acd3" d="M 49.335938 121.25 L 78.121094 121.25 L 78.121094 150.039062 L 49.335938 150.039062 Z M 49.335938 121.25 " fill-opacity="1" fill-rule="nonzero"/></g></g><g clip-path="url(#id16)"><g clip-path="url(#id17)"><path fill="#20c2ef" d="M 49.335938 154.484375 L 78.121094 154.484375 L 78.121094 183.277344 L 49.335938 183.277344 Z M 49.335938 154.484375 " fill-opacity="1" fill-rule="nonzero"/></g></g><g clip-path="url(#id18)"><g clip-path="url(#id19)"><path fill="#000000" d="M 52.867188 147.660156 L 52.867188 123.664062 M 57.183594 147.65625 L 57.183594 123.664062 M 61.542969 147.65625 L 61.542969 123.664062 M 65.902344 147.65625 L 65.902344 123.664062 M 70.265625 147.65625 L 70.265625 123.664062 M 74.578125 147.65625 L 74.578125 123.664062 " fill-opacity="1" fill-rule="nonzero"/></g></g><g clip-path="url(#id20)"><g clip-path="url(#id21)"><path stroke-linecap="butt" transform="matrix(1.45232, 0, 0, 1.452805, -130.547243, 115.730001)" fill="none" stroke-linejoin="miter" d="M 126.290613 21.978279 L 126.290613 5.461202 M 129.262689 21.975591 L 129.262689 5.461202 M 132.264351 21.975591 L 132.264351 5.461202 M 135.266013 21.975591 L 135.266013 5.461202 M 138.270365 21.975591 L 138.270365 5.461202 M 141.239751 21.975591 L 141.239751 5.461202 " stroke="#394d54" stroke-width="1.56" stroke-opacity="1" stroke-miterlimit="4"/></g></g><g clip-path="url(#id22)"><g clip-path="url(#id23)"><path fill="#000000" d="M 52.867188 180.878906 L 52.867188 156.882812 M 57.183594 180.875 L 57.183594 156.882812 M 61.542969 180.875 L 61.542969 156.882812 M 65.902344 180.875 L 65.902344 156.882812 M 70.265625 180.875 L 70.265625 156.882812 M 74.578125 180.875 L 74.578125 156.882812 " fill-opacity="1" fill-rule="nonzero"/></g></g><g clip-path="url(#id24)"><g clip-path="url(#id25)"><path stroke-linecap="butt" transform="matrix(1.45232, 0, 0, 1.452805, -130.547243, 148.949844)" fill="none" stroke-linejoin="miter" d="M 126.290613 21.977527 L 126.290613 5.46045 M 129.262689 21.974839 L 129.262689 5.46045 M 132.264351 21.974839 L 132.264351 5.46045 M 135.266013 21.974839 L 135.266013 5.46045 M 138.270365 21.974839 L 138.270365 5.46045 M 141.239751 21.974839 L 141.239751 5.46045 " stroke="#394d54" stroke-width="1.56" stroke-opacity="1" stroke-miterlimit="4"/></g></g><g clip-path="url(#id26)"><g clip-path="url(#id27)"><path fill="#00acd3" d="M 82.546875 183.292969 L 111.328125 183.292969 L 111.328125 154.503906 L 82.542969 154.503906 Z M 82.546875 183.292969 " fill-opacity="1" fill-rule="nonzero"/></g></g><g clip-path="url(#id28)"><g clip-path="url(#id29)"><path fill="#20c2ef" d="M 82.546875 150.058594 L 111.328125 150.058594 L 111.328125 121.265625 L 82.542969 121.265625 Z M 82.546875 150.058594 " fill-opacity="1" fill-rule="nonzero"/></g></g><g clip-path="url(#id30)"><g clip-path="url(#id31)"><path fill="#000000" d="M 86.074219 156.882812 L 86.074219 180.878906 M 90.390625 156.886719 L 90.390625 180.878906 M 94.75 156.886719 L 94.75 180.878906 M 99.113281 156.886719 L 99.113281 180.878906 M 103.472656 156.886719 L 103.472656 180.878906 M 107.789062 156.886719 L 107.789062 180.878906 " fill-opacity="1" fill-rule="nonzero"/></g></g><g clip-path="url(#id32)"><g clip-path="url(#id33)"><path stroke-linecap="butt" transform="matrix(1.45232, 0, 0, -1.452805, -97.338491, 188.812927)" fill="none" stroke-linejoin="miter" d="M 126.289428 21.978251 L 126.289428 5.461174 M 129.261504 21.975563 L 129.261504 5.461174 M 132.263166 21.975563 L 132.263166 5.461174 M 135.267517 21.975563 L 135.267517 5.461174 M 138.26918 21.975563 L 138.26918 5.461174 M 141.241255 21.975563 L 141.241255 5.461174 " stroke="#394d54" stroke-width="1.56" stroke-opacity="1" stroke-miterlimit="4"/></g></g><g clip-path="url(#id34)"><g clip-path="url(#id35)"><path fill="#000000" d="M 86.074219 123.664062 L 86.074219 147.660156 M 90.390625 123.667969 L 90.390625 147.660156 M 94.75 123.667969 L 94.75 147.660156 M 99.113281 123.667969 L 99.113281 147.660156 M 103.472656 123.667969 L 103.472656 147.660156 M 107.789062 123.667969 L 107.789062 147.660156 " fill-opacity="1" fill-rule="nonzero"/></g></g><g clip-path="url(#id36)"><g clip-path="url(#id37)"><path stroke-linecap="butt" transform="matrix(1.45232, 0, 0, -1.452805, -97.338491, 155.593087)" fill="none" stroke-linejoin="miter" d="M 126.289428 21.977501 L 126.289428 5.460423 M 129.261504 21.974812 L 129.261504 5.460423 M 132.263166 21.974812 L 132.263166 5.460423 M 135.267517 21.974812 L 135.267517 5.460423 M 138.26918 21.974812 L 138.26918 5.460423 M 141.241255 21.974812 L 141.241255 5.460423 " stroke="#394d54" stroke-width="1.56" stroke-opacity="1" stroke-miterlimit="4"/></g></g><g clip-path="url(#id38)"><g clip-path="url(#id39)"><path fill="#00acd3" d="M 115.753906 121.25 L 144.535156 121.25 L 144.535156 150.039062 L 115.75 150.039062 Z M 115.753906 121.25 " fill-opacity="1" fill-rule="nonzero"/></g></g><g clip-path="url(#id40)"><g clip-path="url(#id41)"><path fill="#20c2ef" d="M 115.753906 154.484375 L 144.535156 154.484375 L 144.535156 183.277344 L 115.75 183.277344 Z M 115.753906 154.484375 " fill-opacity="1" fill-rule="nonzero"/></g></g><g clip-path="url(#id42)"><g clip-path="url(#id43)"><path fill="#000000" d="M 119.285156 147.660156 L 119.285156 123.664062 M 123.601562 147.65625 L 123.601562 123.664062 M 127.960938 147.65625 L 127.960938 123.664062 M 132.320312 147.65625 L 132.320312 123.664062 M 136.683594 147.65625 L 136.683594 123.664062 M 140.996094 147.65625 L 140.996094 123.664062 " fill-opacity="1" fill-rule="nonzero"/></g></g><g clip-path="url(#id44)"><g clip-path="url(#id45)"><path stroke-linecap="butt" transform="matrix(1.45232, 0, 0, 1.452805, -64.129729, 115.730001)" fill="none" stroke-linejoin="miter" d="M 126.290926 21.978279 L 126.290926 5.461202 M 129.263002 21.975591 L 129.263002 5.461202 M 132.264664 21.975591 L 132.264664 5.461202 M 135.266326 21.975591 L 135.266326 5.461202 M 138.270678 21.975591 L 138.270678 5.461202 M 141.240064 21.975591 L 141.240064 5.461202 " stroke="#394d54" stroke-width="1.56" stroke-opacity="1" stroke-miterlimit="4"/></g></g><g clip-path="url(#id46)"><g clip-path="url(#id47)"><path fill="#000000" d="M 119.285156 180.878906 L 119.285156 156.882812 M 123.601562 180.875 L 123.601562 156.882812 M 127.960938 180.875 L 127.960938 156.882812 M 132.320312 180.875 L 132.320312 156.882812 M 136.683594 180.875 L 136.683594 156.882812 M 140.996094 180.875 L 140.996094 156.882812 " fill-opacity="1" fill-rule="nonzero"/></g></g><g clip-path="url(#id48)"><g clip-path="url(#id49)"><path stroke-linecap="butt" transform="matrix(1.45232, 0, 0, 1.452805, -64.129729, 148.949844)" fill="none" stroke-linejoin="miter" d="M 126.290926 21.977527 L 126.290926 5.46045 M 129.263002 21.974839 L 129.263002 5.46045 M 132.264664 21.974839 L 132.264664 5.46045 M 135.266326 21.974839 L 135.266326 5.46045 M 138.270678 21.974839 L 138.270678 5.46045 M 141.240064 21.974839 L 141.240064 5.46045 " stroke="#394d54" stroke-width="1.56" stroke-opacity="1" stroke-miterlimit="4"/></g></g><g clip-path="url(#id50)"><g clip-path="url(#id51)"><path fill="#00acd3" d="M 148.964844 183.292969 L 177.746094 183.292969 L 177.746094 154.503906 L 148.960938 154.503906 Z M 148.964844 183.292969 " fill-opacity="1" fill-rule="nonzero"/></g></g><g clip-path="url(#id52)"><g clip-path="url(#id53)"><path fill="#20c2ef" d="M 148.964844 150.058594 L 177.746094 150.058594 L 177.746094 121.265625 L 148.960938 121.265625 Z M 148.964844 150.058594 " fill-opacity="1" fill-rule="nonzero"/></g></g><g clip-path="url(#id54)"><g clip-path="url(#id55)"><path fill="#000000" d="M 152.492188 156.882812 L 152.492188 180.878906 M 156.808594 156.886719 L 156.808594 180.878906 M 161.167969 156.886719 L 161.167969 180.878906 M 165.53125 156.886719 L 165.53125 180.878906 M 169.890625 156.886719 L 169.890625 180.878906 M 174.203125 156.886719 L 174.203125 180.878906 " fill-opacity="1" fill-rule="nonzero"/></g></g><g clip-path="url(#id56)"><g clip-path="url(#id57)"><path stroke-linecap="butt" transform="matrix(1.45232, 0, 0, -1.452805, -30.920974, 188.812927)" fill="none" stroke-linejoin="miter" d="M 126.289739 21.978251 L 126.289739 5.461174 M 129.261815 21.975563 L 129.261815 5.461174 M 132.263477 21.975563 L 132.263477 5.461174 M 135.267829 21.975563 L 135.267829 5.461174 M 138.269491 21.975563 L 138.269491 5.461174 M 141.238877 21.975563 L 141.238877 5.461174 " stroke="#394d54" stroke-width="1.56" stroke-opacity="1" stroke-miterlimit="4"/></g></g><g clip-path="url(#id58)"><g clip-path="url(#id59)"><path fill="#000000" d="M 152.492188 123.664062 L 152.492188 147.660156 M 156.808594 123.667969 L 156.808594 147.660156 M 161.167969 123.667969 L 161.167969 147.660156 M 165.53125 123.667969 L 165.53125 147.660156 M 169.890625 123.667969 L 169.890625 147.660156 M 174.203125 123.667969 L 174.203125 147.660156 " fill-opacity="1" fill-rule="nonzero"/></g></g><g clip-path="url(#id60)"><g clip-path="url(#id61)"><path stroke-linecap="butt" transform="matrix(1.45232, 0, 0, -1.452805, -30.920974, 155.593087)" fill="none" stroke-linejoin="miter" d="M 126.289739 21.977501 L 126.289739 5.460423 M 129.261815 21.974812 L 129.261815 5.460423 M 132.263477 21.974812 L 132.263477 5.460423 M 135.267829 21.974812 L 135.267829 5.460423 M 138.269491 21.974812 L 138.269491 5.460423 M 141.238877 21.974812 L 141.238877 5.460423 " stroke="#394d54" stroke-width="1.56" stroke-opacity="1" stroke-miterlimit="4"/></g></g><g clip-path="url(#id62)"><g clip-path="url(#id63)"><path fill="#00acd3" d="M 182.171875 121.25 L 210.953125 121.25 L 210.953125 150.039062 L 182.167969 150.039062 Z M 182.171875 121.25 " fill-opacity="1" fill-rule="nonzero"/></g></g><g clip-path="url(#id64)"><g clip-path="url(#id65)"><path fill="#20c2ef" d="M 182.171875 154.484375 L 210.953125 154.484375 L 210.953125 183.277344 L 182.167969 183.277344 Z M 182.171875 154.484375 " fill-opacity="1" fill-rule="nonzero"/></g></g><g clip-path="url(#id66)"><g clip-path="url(#id67)"><path fill="#000000" d="M 185.703125 147.660156 L 185.703125 123.664062 M 190.019531 147.65625 L 190.019531 123.664062 M 194.378906 147.65625 L 194.378906 123.664062 M 198.738281 147.65625 L 198.738281 123.664062 M 203.101562 147.65625 L 203.101562 123.664062 M 207.414062 147.65625 L 207.414062 123.664062 " fill-opacity="1" fill-rule="nonzero"/></g></g><g clip-path="url(#id68)"><g clip-path="url(#id69)"><path stroke-linecap="butt" transform="matrix(1.45232, 0, 0, 1.452805, 2.287784, 115.730001)" fill="none" stroke-linejoin="miter" d="M 126.29124 21.978279 L 126.29124 5.461202 M 129.263316 21.975591 L 129.263316 5.461202 M 132.264978 21.975591 L 132.264978 5.461202 M 135.26664 21.975591 L 135.26664 5.461202 M 138.270992 21.975591 L 138.270992 5.461202 M 141.240378 21.975591 L 141.240378 5.461202 " stroke="#394d54" stroke-width="1.56" stroke-opacity="1" stroke-miterlimit="4"/></g></g><g clip-path="url(#id70)"><g clip-path="url(#id71)"><path fill="#000000" d="M 185.703125 180.878906 L 185.703125 156.882812 M 190.019531 180.875 L 190.019531 156.882812 M 194.378906 180.875 L 194.378906 156.882812 M 198.738281 180.875 L 198.738281 156.882812 M 203.101562 180.875 L 203.101562 156.882812 M 207.414062 180.875 L 207.414062 156.882812 " fill-opacity="1" fill-rule="nonzero"/></g></g><g clip-path="url(#id72)"><g clip-path="url(#id73)"><path stroke-linecap="butt" transform="matrix(1.45232, 0, 0, 1.452805, 2.287784, 148.949844)" fill="none" stroke-linejoin="miter" d="M 126.29124 21.977527 L 126.29124 5.46045 M 129.263316 21.974839 L 129.263316 5.46045 M 132.264978 21.974839 L 132.264978 5.46045 M 135.26664 21.974839 L 135.26664 5.46045 M 138.270992 21.974839 L 138.270992 5.46045 M 141.240378 21.974839 L 141.240378 5.46045 " stroke="#394d54" stroke-width="1.56" stroke-opacity="1" stroke-miterlimit="4"/></g></g><g clip-path="url(#id74)"><g clip-path="url(#id75)"><path fill="#00acd3" d="M 215.382812 183.292969 L 244.164062 183.292969 L 244.164062 154.503906 L 215.378906 154.503906 Z M 215.382812 183.292969 " fill-opacity="1" fill-rule="nonzero"/></g></g><g clip-path="url(#id76)"><g clip-path="url(#id77)"><path fill="#20c2ef" d="M 215.382812 150.058594 L 244.164062 150.058594 L 244.164062 121.265625 L 215.378906 121.265625 Z M 215.382812 150.058594 " fill-opacity="1" fill-rule="nonzero"/></g></g><g clip-path="url(#id78)"><g clip-path="url(#id79)"><path fill="#000000" d="M 218.910156 156.882812 L 218.910156 180.878906 M 223.226562 156.886719 L 223.226562 180.878906 M 227.585938 156.886719 L 227.585938 180.878906 M 231.949219 156.886719 L 231.949219 180.878906 M 236.308594 156.886719 L 236.308594 180.878906 M 240.621094 156.886719 L 240.621094 180.878906 " fill-opacity="1" fill-rule="nonzero"/></g></g><g clip-path="url(#id80)"><g clip-path="url(#id81)"><path stroke-linecap="butt" transform="matrix(1.45232, 0, 0, -1.452805, 35.496539, 188.812927)" fill="none" stroke-linejoin="miter" d="M 126.290053 21.978251 L 126.290053 5.461174 M 129.262129 21.975563 L 129.262129 5.461174 M 132.263791 21.975563 L 132.263791 5.461174 M 135.268143 21.975563 L 135.268143 5.461174 M 138.269805 21.975563 L 138.269805 5.461174 M 141.239191 21.975563 L 141.239191 5.461174 " stroke="#394d54" stroke-width="1.56" stroke-opacity="1" stroke-miterlimit="4"/></g></g><g clip-path="url(#id82)"><g clip-path="url(#id83)"><path fill="#000000" d="M 218.910156 123.664062 L 218.910156 147.660156 M 223.226562 123.667969 L 223.226562 147.660156 M 227.585938 123.667969 L 227.585938 147.660156 M 231.949219 123.667969 L 231.949219 147.660156 M 236.308594 123.667969 L 236.308594 147.660156 M 240.621094 123.667969 L 240.621094 147.660156 " fill-opacity="1" fill-rule="nonzero"/></g></g><g clip-path="url(#id84)"><g clip-path="url(#id85)"><path stroke-linecap="butt" transform="matrix(1.45232, 0, 0, -1.452805, 35.496539, 155.593087)" fill="none" stroke-linejoin="miter" d="M 126.290053 21.977501 L 126.290053 5.460423 M 129.262129 21.974812 L 129.262129 5.460423 M 132.263791 21.974812 L 132.263791 5.460423 M 135.268143 21.974812 L 135.268143 5.460423 M 138.269805 21.974812 L 138.269805 5.460423 M 141.239191 21.974812 L 141.239191 5.460423 " stroke="#394d54" stroke-width="1.56" stroke-opacity="1" stroke-miterlimit="4"/></g></g><g clip-path="url(#id86)"><g clip-path="url(#id87)"><path fill="#17b5eb" d="M 324.078125 161.515625 C 326.304688 144.203125 313.355469 130.605469 305.324219 124.152344 C 296.066406 134.855469 294.628906 162.910156 309.148438 174.71875 C 301.046875 181.917969 283.972656 188.445312 266.488281 188.445312 L 51.660156 188.445312 C 49.960938 206.703125 51.660156 294.621094 51.660156 294.621094 L 366.8125 294.621094 L 365.378906 161.796875 C 351.726562 153.917969 334.179688 156.433594 324.070312 161.511719 " fill-opacity="1" fill-rule="nonzero"/></g></g><g clip-path="url(#id88)"><g clip-path="url(#id89)"><path fill="#000000" d="M 51.667969 211.808594 L 51.667969 294.621094 L 366.820312 294.621094 L 366.820312 211.808594 " fill-opacity="0.1686" fill-rule="nonzero"/></g></g><g clip-path="url(#id90)"><g clip-path="url(#id91)"><path fill="#d4edf1" d="M 163.84375 287.210938 C 144.179688 277.875 133.386719 265.1875 127.378906 251.335938 L 67.640625 253.933594 L 98.140625 294.613281 L 163.839844 287.203125 " fill-opacity="1" fill-rule="nonzero"/></g></g><g clip-path="url(#id92)"><g clip-path="url(#id93)"><path fill="#000000" d="M 325.429688 160.871094 L 325.429688 160.914062 C 295.132812 199.996094 251.675781 234.109375 205.023438 252.035156 C 163.40625 268.027344 127.125 268.101562 102.089844 255.261719 C 99.394531 253.738281 96.75 252.046875 94.101562 250.449219 C 75.75 237.617188 65.414062 216.394531 66.28125 188.433594 L 51.671875 188.433594 L 51.671875 294.621094 L 366.824219 294.621094 L 366.824219 155.152344 L 330.515625 155.152344 Z M 325.429688 160.871094 " fill-opacity="0.0863" fill-rule="nonzero"/></g></g><path stroke-linecap="round" transform="matrix(7.864834, 0, 0, 7.86746, -21.861188, 176.903938)" fill="none" stroke-linejoin="miter" d="M 11.496221 9.613168 C 14.112198 9.756162 16.903002 9.782974 19.33819 9.018849 " stroke="#394d54" stroke-width="0.628" stroke-opacity="1" stroke-miterlimit="4"/><path fill="#d4edf1" d="M 150.667969 237.898438 C 150.667969 238.421875 150.617188 238.9375 150.515625 239.449219 C 150.414062 239.960938 150.261719 240.457031 150.0625 240.9375 C 149.863281 241.417969 149.621094 241.875 149.328125 242.308594 C 149.039062 242.742188 148.710938 243.144531 148.34375 243.511719 C 147.976562 243.878906 147.574219 244.207031 147.140625 244.5 C 146.707031 244.789062 146.25 245.03125 145.769531 245.230469 C 145.289062 245.433594 144.792969 245.582031 144.28125 245.683594 C 143.769531 245.785156 143.253906 245.839844 142.734375 245.839844 C 142.210938 245.839844 141.695312 245.789062 141.183594 245.6875 C 140.675781 245.585938 140.175781 245.433594 139.695312 245.234375 C 139.214844 245.035156 138.757812 244.789062 138.324219 244.5 C 137.890625 244.210938 137.488281 243.882812 137.121094 243.515625 C 136.75 243.144531 136.421875 242.746094 136.132812 242.3125 C 135.84375 241.878906 135.597656 241.421875 135.398438 240.9375 C 135.199219 240.457031 135.046875 239.960938 134.945312 239.449219 C 134.84375 238.9375 134.792969 238.421875 134.789062 237.898438 C 134.789062 237.378906 134.839844 236.863281 134.941406 236.351562 C 135.046875 235.839844 135.195312 235.339844 135.394531 234.859375 C 135.59375 234.378906 135.839844 233.917969 136.128906 233.484375 C 136.417969 233.050781 136.75 232.652344 137.117188 232.28125 C 137.484375 231.914062 137.886719 231.582031 138.320312 231.292969 C 138.753906 231.003906 139.210938 230.757812 139.695312 230.558594 C 140.175781 230.359375 140.671875 230.207031 141.183594 230.105469 C 141.695312 230.003906 142.210938 229.953125 142.734375 229.953125 C 143.253906 229.953125 143.773438 230.007812 144.28125 230.109375 C 144.792969 230.210938 145.289062 230.363281 145.773438 230.5625 C 146.253906 230.761719 146.710938 231.007812 147.144531 231.296875 C 147.578125 231.585938 147.976562 231.914062 148.347656 232.285156 C 148.714844 232.652344 149.042969 233.054688 149.332031 233.488281 C 149.621094 233.921875 149.867188 234.378906 150.066406 234.859375 C 150.265625 235.34375 150.414062 235.839844 150.515625 236.351562 C 150.617188 236.863281 150.667969 237.378906 150.667969 237.898438 Z M 150.667969 237.898438 " fill-opacity="1" fill-rule="nonzero"/><path fill="#394d54" d="M 144.875 232.605469 C 144.179688 233 143.710938 233.753906 143.710938 234.621094 C 143.710938 235.902344 144.746094 236.941406 146.03125 236.941406 C 146.910156 236.941406 147.601562 236.453125 148.074219 235.730469 C 148.363281 236.425781 148.503906 237.152344 148.507812 237.910156 C 148.507812 241.054688 145.957031 243.597656 142.820312 243.597656 C 139.683594 243.597656 137.132812 241.046875 137.132812 237.910156 C 137.132812 234.769531 139.683594 232.21875 142.820312 232.21875 C 143.53125 232.21875 144.21875 232.347656 144.882812 232.605469 Z M 2.285156 213.488281 L 371.648438 213.488281 C 363.601562 211.441406 346.207031 208.765625 349.074219 198.144531 C 334.449219 215.078125 299.179688 209.949219 290.285156 201.671875 C 280.375 216.050781 222.671875 210.585938 218.652344 199.308594 C 206.226562 213.898438 167.730469 213.898438 155.300781 199.308594 C 151.273438 210.515625 93.578125 215.988281 83.730469 201.671875 C 74.75 209.949219 39.484375 215.085938 24.855469 198.144531 C 27.726562 208.6875 10.320312 211.519531 2.285156 213.488281 " fill-opacity="1" fill-rule="nonzero"/></svg>